PathFileType	4	(X/Y/Z)	 s02c0303.trc
DataRate	CameraRate	NumFrames	NumMarkers	Units	OrigDataRate	OrigDataStartFrame	OrigNumFrames
200	200	4	50	mm	200	1251	2000
Frame#	Time	racr			lacr			c7			jug			rlel			rdr			llel			ldr			s2			lic			ric			lasi			rasi			rpsi			lpsi			rgt			lgt			rth1			rth2			rth3			rth4			rlfc			rmfc			rsh1			rsh2			rsh3			rsh4			rlmal			rmmal			rtoe			rmt5			rmt1			lth1			lth2			lth4			lth3			llfc			lmfc			lsh1			lsh2			lsh3			lsh4			llmal			lmmal			lcal			ltoe			lmt5			SBIKE			LBIKE			RBIKE			
		X1	Y1	Z1	X2	Y2	Z2	X3	Y3	Z3	X4	Y4	Z4	X5	Y5	Z5	X6	Y6	Z6	X7	Y7	Z7	X8	Y8	Z8	X9	Y9	Z9	X10	Y10	Z10	X11	Y11	Z11	X12	Y12	Z12	X13	Y13	Z13	X14	Y14	Z14	X15	Y15	Z15	X16	Y16	Z16	X17	Y17	Z17	X18	Y18	Z18	X19	Y19	Z19	X20	Y20	Z20	X21	Y21	Z21	X22	Y22	Z22	X23	Y23	Z23	X24	Y24	Z24	X25	Y25	Z25	X26	Y26	Z26	X27	Y27	Z27	X28	Y28	Z28	X29	Y29	Z29	X30	Y30	Z30	X31	Y31	Z31	X32	Y32	Z32	X33	Y33	Z33	X34	Y34	Z34	X35	Y35	Z35	X36	Y36	Z36	X37	Y37	Z37	X38	Y38	Z38	X39	Y39	Z39	X40	Y40	Z40	X41	Y41	Z41	X42	Y42	Z42	X43	Y43	Z43	X44	Y44	Z44	X45	Y45	Z45	X46	Y46	Z46	X47	Y47	Z47	X48	Y48	Z48	X49	Y49	Z49	X50	Y50	Z50	
1251	6.2550	697.273572	1234.396183	-80.352376	775.933432	1221.492825	-418.118877	739.821379	1265.941742	-253.515984	657.664887	1146.609813	-261.049238	574.370911	990.663407	-45.791018	720.735752	855.624098	-114.228374	651.554093	1033.856421	-604.927803	725.275542	849.145173	-515.449109	201.818272	1211.648216	-356.077834	340.181824	1156.196446	-483.753354	305.207347	1187.833662	-193.834321	369.635355	1110.261295	-449.233404	349.524162	1156.045247	-226.421780	217.443309	1248.180887	-320.359971	243.120337	1242.391990	-402.632079	271.945284	1120.087167	-155.478533	269.230862	1073.891458	-510.518889	349.641937	1074.850544	-144.060116	428.869596	1036.018709	-141.283823	478.600676	973.599535	-110.419605	449.532654	1054.553761	-167.313468	566.508268	849.334072	-132.564939	564.713785	830.318967	-244.170137	530.235460	741.838363	-118.625745	501.492110	658.849225	-138.287753	440.259974	598.680115	-136.189206	513.600691	654.124202	-176.347440	367.413113	504.498785	-142.214379	380.250698	521.947805	-223.652433	562.203545	405.741574	-182.067207	452.083540	409.620962	-122.141083	482.238498	422.458143	-229.063675	344.904910	957.794538	-521.418756	394.798234	886.150012	-520.406083	426.006782	897.651536	-505.030049	400.483517	797.157253	-519.841286	424.922345	698.093881	-506.907105	426.509197	666.770461	-406.296965	364.825562	609.905072	-525.777309	327.915560	534.036955	-509.083515	253.317217	482.165067	-508.995645	345.052662	523.939002	-472.569248	171.941233	403.904481	-493.712568	190.230651	390.099876	-417.152792	100.198385	421.048392	-445.100008	246.170134	173.724142	-437.170343	167.635167	244.927308	-502.443750	-125.451479	872.626272	-306.007850	37.217275	87.768715	-513.935943	34.302869	83.925077	-113.829657	
1252	6.2600	697.956162	1233.059703	-80.199285	776.052427	1223.233193	-418.389623	740.337123	1266.144254	-253.189833	657.709927	1147.208014	-261.727547	574.128484	989.917979	-46.055093	720.769901	855.732294	-114.374022	652.225224	1034.326359	-604.333661	725.285404	848.986484	-515.330279	202.564323	1211.679593	-356.480169	340.730794	1157.482235	-483.796237	304.826317	1186.206404	-193.942896	370.167099	1111.194446	-449.737759	349.474268	1154.425224	-226.342100	217.948638	1248.534727	-320.294536	243.795019	1243.310524	-402.313877	270.151891	1117.402778	-156.350488	271.525113	1075.093729	-512.216940	348.054539	1070.318860	-144.150461	426.580416	1030.077973	-140.817802	474.789322	966.607844	-109.960232	447.901931	1048.810191	-166.194535	560.490883	841.000668	-132.963455	559.679510	821.579910	-243.898108	524.950725	732.120956	-118.695111	498.461154	648.593796	-139.107230	438.754914	586.785799	-137.757084	510.958862	644.460886	-177.104469	368.514242	492.605562	-145.092218	381.704637	510.125887	-225.923791	566.006320	397.337018	-181.920367	455.451498	399.764099	-122.880705	485.555912	412.554997	-229.807750	349.837951	960.189548	-520.909830	400.744878	889.387279	-519.861040	431.479315	901.246513	-504.128161	407.743064	800.547863	-519.833729	432.719310	701.437903	-507.335057	432.390198	670.557101	-405.632365	370.364167	613.967863	-526.080042	331.000467	539.359142	-509.388124	254.851409	489.809227	-509.351021	347.737534	528.619349	-472.729704	170.911073	413.701603	-493.998778	189.126637	399.569364	-417.436763	99.459561	431.888101	-445.086631	241.172619	182.174634	-437.167075	163.716820	254.699302	-502.470788	-125.396846	872.619978	-306.027862	37.233071	87.720631	-513.967581	34.174550	83.911425	-113.839049	
1253	6.2650	698.938821	1231.773762	-80.202930	776.093655	1225.034968	-418.831899	740.850551	1266.371615	-253.112676	658.109397	1147.576386	-262.440362	573.861368	989.333038	-45.933331	720.834205	855.895954	-114.440584	652.937494	1034.821503	-603.767378	726.184823	848.930020	-516.300005	203.284918	1211.315894	-356.838060	341.313768	1158.491565	-483.998570	304.539058	1184.290811	-193.893957	370.668563	1112.027870	-450.277518	349.455184	1152.439273	-226.350814	218.471098	1248.191727	-319.903819	244.660077	1243.285280	-402.108361	268.277035	1114.422380	-157.004756	273.803102	1076.005182	-513.811766	346.574109	1065.753447	-144.198817	424.354900	1024.094182	-140.426295	470.476698	959.589148	-109.061831	446.329446	1042.803054	-165.051346	553.982036	832.095384	-133.014056	554.679059	813.293314	-243.640857	519.537420	722.711261	-119.063834	494.655737	638.056748	-140.908876	437.508670	575.271777	-139.260607	509.409616	635.287843	-177.598851	369.610330	481.028170	-146.632541	382.950791	498.111159	-227.563487	569.375354	388.169997	-182.632818	458.618478	389.390070	-123.639548	488.565591	402.631307	-230.707540	354.586782	962.486328	-520.999031	406.507435	892.396904	-519.520425	436.837354	904.658065	-503.386945	414.832579	803.744288	-519.915001	440.183622	704.467828	-507.758686	438.169014	674.005575	-404.848107	375.542678	618.049295	-526.377994	334.203090	544.707805	-509.702053	256.586452	497.350428	-509.639173	350.614459	533.380132	-472.971069	170.562491	423.412695	-494.222381	188.715580	409.255658	-417.728779	99.404156	442.807220	-445.174521	236.589796	190.535327	-437.285691	160.510424	264.448713	-502.489828	-125.417571	872.599377	-306.143973	37.222215	87.681029	-513.974239	34.112250	83.934503	-113.784368	
1254	6.2700	700.072333	1230.335039	-80.315485	776.118556	1226.907076	-419.421707	741.345496	1266.640055	-253.209093	658.804302	1147.772838	-263.327904	573.591337	988.831219	-45.479461	720.883394	856.114086	-114.406346	653.493055	1035.264129	-603.329190	727.097968	848.886796	-517.315314	203.746811	1210.429016	-357.034714	341.805465	1159.252669	-483.749050	304.372256	1182.013265	-193.677501	371.067491	1112.607833	-450.662058	349.557122	1150.405072	-226.104503	218.954126	1247.277288	-319.278158	245.041813	1242.983958	-401.312788	266.993255	1110.989688	-158.134972	276.069236	1076.764833	-515.267581	345.137854	1061.047362	-144.220214	422.212032	1018.133822	-140.057263	467.025352	952.152247	-109.046800	444.789367	1036.661193	-164.149492	547.698331	823.729693	-133.703112	549.807529	805.223311	-243.962570	514.209711	713.918870	-119.289408	491.896253	628.718227	-141.185021	436.397680	564.268760	-140.268607	507.197760	626.362466	-177.736192	370.746752	469.282523	-147.941106	385.195708	486.439598	-228.696793	571.875934	378.019843	-182.098416	460.348635	378.744447	-123.934489	491.503558	392.358758	-231.017084	359.026508	964.535693	-521.217629	412.001820	895.112682	-519.429133	441.870662	907.802269	-502.757923	421.576650	806.692218	-520.014674	447.273832	707.406949	-508.187099	444.079261	676.986177	-404.811121	380.909695	622.097352	-526.752741	337.409645	549.515405	-509.637832	258.695257	504.723831	-509.848549	353.541631	538.292121	-473.245819	170.943371	433.038707	-494.414432	188.173857	418.991516	-417.770042	100.251317	453.737137	-445.158818	232.699349	198.942635	-437.458683	157.937580	274.262066	-502.446442	-125.498942	872.540326	-306.360493	37.227597	87.517215	-514.078934	33.564205	84.372880	-113.854028	
